<svg xmlns="http://www.w3.org/2000/svg" viewBox="0 0 512 512" width="512" height="512">
  <path fill="#046A38" d="M256 0C114.6 0 0 114.6 0 256s114.6 256 256 256 256-114.6 256-256S397.4 0 256 0zm0 486.4c-127.2 0-230.4-103.2-230.4-230.4S128.8 25.6 256 25.6 486.4 128.8 486.4 256 383.2 486.4 256 486.4z"/>
  <path fill="#CE1126" d="M256 51.2c-113.1 0-204.8 91.7-204.8 204.8S142.9 460.8 256 460.8 460.8 369.1 460.8 256 369.1 51.2 256 51.2zm0 384c-98.9 0-179.2-80.3-179.2-179.2S157.1 76.8 256 76.8 435.2 157.1 435.2 256 354.9 435.2 256 435.2z"/>
  <path fill="#FFFFFF" d="M256 102.4c-84.8 0-153.6 68.8-153.6 153.6S171.2 409.6 256 409.6 409.6 340.8 409.6 256 340.8 102.4 256 102.4zm0 281.6c-70.7 0-128-57.3-128-128s57.3-128 128-128 128 57.3 128 128-57.3 128-128 128z"/>
  <path fill="#8B5A2B" d="M256 153.6c56.6 0 102.4 45.8 102.4 102.4S312.6 358.4 256 358.4 153.6 312.6 153.6 256s45.8-102.4 102.4-102.4z"/>
  <path fill="#8B5A2B" d="M332.8 192c-14.1 0-27.3 3.9-38.7 10.6-4.9-17.5-21-30.2-40.1-30.2-19 0-35.1 12.7-40.1 30.2-11.3-6.7-24.6-10.6-38.7-10.6-17.3 0-32.9 7-44.2 18.4 5.4-40.9 40.1-72.8 82.7-72.8 29.5 0 55.8 15.5 70.5 38.8 14.8-23.3 41-38.8 70.5-38.8 42.6 0 77.3 32 82.7 72.8-11.3-11.3-26.9-18.4-44.2-18.4z"/>
  <path fill="#FFFFFF" d="M275.2 217.6l-12.8 25.6-12.8-25.6h-19.2l19.2 38.4-19.2 38.4h19.2l12.8-25.6 12.8 25.6h19.2l-19.2-38.4 19.2-38.4h-19.2z"/>
  <path fill="#046A38" d="M224 230.4c0 5.7-4.6 10.3-10.3 10.3-5.7 0-10.3-4.6-10.3-10.3 0-5.7 4.6-10.3 10.3-10.3 5.7 0 10.3 4.6 10.3 10.3zm-10.3-15.5c-8.5 0-15.5 6.9-15.5 15.5 0 8.5 6.9 15.5 15.5 15.5 8.5 0 15.5-6.9 15.5-15.5 0-8.6-7-15.5-15.5-15.5z"/>
  <path fill="#CE1126" d="M308.5 230.4c0 5.7-4.6 10.3-10.3 10.3-5.7 0-10.3-4.6-10.3-10.3 0-5.7 4.6-10.3 10.3-10.3 5.7 0 10.3 4.6 10.3 10.3zm-10.3-15.5c-8.5 0-15.5 6.9-15.5 15.5 0 8.5 6.9 15.5 15.5 15.5 8.5 0 15.5-6.9 15.5-15.5 0-8.6-7-15.5-15.5-15.5z"/>
</svg>